{"accessors" : [{"bufferView" : 0, "byteOffset" : 0, "componentType" : 5123, "count" : 30399, "type" : "SCALAR", "max" : [25095], "min" : [0]}, {"bufferView" : 1, "byteOffset" : 0, "componentType" : 5126, "count" : 25096, "type" : "VEC3", "max" : [49.305145263671875, 40.17658615112305, 8.891200065612793], "min" : [-25.015216827392578, -0.0027058611158281565, -90.04127502441406], "name" : "POSITION"}], "asset" : {"generator" : "Aspose.3D 23.2", "version" : "2.0"}, "buffers" : [{"uri" : "data:application/octet-stream;base64,", "byteLength" : 425596}], "bufferViews" : [{"buffer" : 0, "byteOffset" : 0, "byteLength" : 60800, "target" : 34963}, {"buffer" : 0, "byteOffset" : 60804, "byteLength" : 364788, "byteStride" : 12, "target" : 34962}], "meshes" : [{"primitives" : [{"attributes" : {"POSITION" : 1}, "indices" : 0, "mode" : 4}], "name" : ""}], "nodes" : [{"mesh" : 0, "name" : ""}], "scene" : 0, "scenes" : [{"nodes" : [0]}]}